<svg width="81" height="49" fill="none" xmlns="http://www.w3.org/2000/svg" class="scale-75 lg:scale-100"><g filter="url(#a)" fill="#356AF0" stroke="#356AF0" stroke-width="2"><path d="M24.927 1.81c29.875-.294 31.633.292 31.633.292l-.792.855a21.996 21.996 0 0 1-16.141 7.053H26.39c-7.442 0-14.352 5.566-15.23 12.302-1.758 13.473 11.13 17.573 11.13 17.573l-5.858 6.737s-17.47-7.693-14.06-25.775C5.304 5.324 19.94 1.857 24.928 1.81ZM56.073 47.712c-29.875.292-31.633-.293-31.633-.293l.792-.855a21.996 21.996 0 0 1 16.141-7.054H54.61c7.442 0 14.352-5.565 15.23-12.301C71.597 13.736 58.71 9.635 58.71 9.635L64.567 2.9s17.47 7.692 14.06 25.774c-2.93 15.524-17.566 18.99-22.554 19.039Z"></path></g><defs><filter id="a" x="0.932" y="0.727" width="80.137" height="50.066" filterUnits="userSpaceOnUse" color-interpolation-filters="sRGB"><feFlood flood-opacity="0" result="BackgroundImageFix"></feFlood><feBlend in="SourceGraphic" in2="BackgroundImageFix" result="shape"></feBlend><feColorMatrix in="SourceAlpha" values="0 0 0 0 0 0 0 0 0 0 0 0 0 0 0 0 0 0 127 0" result="hardAlpha"></feColorMatrix><feOffset dx="1" dy="3"></feOffset><feGaussianBlur stdDeviation="1"></feGaussianBlur><feComposite in2="hardAlpha" operator="arithmetic" k2="-1" k3="1"></feComposite><feColorMatrix values="0 0 0 0 1 0 0 0 0 1 0 0 0 0 1 0 0 0 0.25 0"></feColorMatrix><feBlend in2="shape" result="effect1_innerShadow_1921_1512"></feBlend></filter></defs></svg>