<svg width="22" height="17" viewBox="0 0 22 17" fill="none" xmlns="http://www.w3.org/2000/svg"><path fill-rule="evenodd" clip-rule="evenodd" d="M12.0226 3.27589C12.2736 2.94641 12.7442 2.88281 13.0737 3.13384L19.1987 7.80046C19.3849 7.94232 19.4941 8.16297 19.4941 8.39704C19.4941 8.63111 19.3849 8.85175 19.1987 8.99361L13.0737 13.6603C12.7442 13.9113 12.2736 13.8477 12.0226 13.5182C11.7715 13.1888 11.8351 12.7182 12.1646 12.4671L16.5222 9.14704H2.99414C2.57993 9.14704 2.24414 8.81125 2.24414 8.39704C2.24414 7.98282 2.57993 7.64704 2.99414 7.64704H16.5222L12.1646 4.32699C11.8351 4.07596 11.7715 3.60537 12.0226 3.27589Z" fill="#356AF0"></path></svg>